<svg xmlns="http://www.w3.org/2000/svg" viewBox="0 0 770 770"><defs><linearGradient id="Adsýz_degrade" x1="230.1" x2="282.2" y1="212.1" y2="265.7" data-name="Adsýz degrade" gradientUnits="userSpaceOnUse"><stop offset="0" stop-color="#fff"/><stop offset="1"/></linearGradient><linearGradient id="Adsýz_degrade_17" x1="230.1" x2="282.2" y1="212.1" y2="265.7" data-name="Adsýz degrade 17" gradientUnits="userSpaceOnUse"><stop offset="0"/><stop offset="1" stop-color="#fff"/></linearGradient><linearGradient id="Adsýz_degrade_29" x1="493.5" x2="524.1" y1="547" y2="578.2" data-name="Adsýz degrade 29" gradientUnits="userSpaceOnUse"><stop offset="0" stop-color="#fff"/><stop offset=".2" stop-color="#bbb"/><stop offset=".5" stop-color="#6c6c6c"/><stop offset=".7" stop-color="#313131"/><stop offset=".9" stop-color="#0d0d0d"/><stop offset="1"/></linearGradient><linearGradient id="Adsýz_degrade_21" x1="493.5" x2="524.1" y1="547" y2="578.2" data-name="Adsýz degrade 21" gradientUnits="userSpaceOnUse"><stop offset="0"/><stop offset="0" stop-color="#0d0d0d"/><stop offset=".3" stop-color="#313131"/><stop offset=".5" stop-color="#6c6c6c"/><stop offset=".8" stop-color="#bbb"/><stop offset="1" stop-color="#fff"/></linearGradient><mask id="mask" width="305" height="315" x="130.4" y="101" maskUnits="userSpaceOnUse"><path d="M435.4 116.8 324.7 225.4c-7.2-.5-14.7-.7-22.3-.7h-31.3V278L130.4 416v-90.1L355.3 101c28.6 3.1 55.3 8.4 80.1 15.8" style="fill:url(#Adsýz_degrade);stroke-width:0"/></mask><mask id="mask-1" width="288.3" height="287.8" x="352" y="405.6" maskUnits="userSpaceOnUse"><path d="M640.3 423.5c0 16.6-1.2 32.6-3.7 48L417.7 686.3c-19.2 3.6-41 6-65.6 7.2l287.8-287.8c.3 5.9.5 11.8.5 17.9Z" style="stroke-width:0;mix-blend-mode:multiply;opacity:.8;fill:url(#Adsýz_degrade_29)"/><path d="M640.3 423.5c0 16.6-1.2 32.6-3.7 48L417.7 686.3c-19.2 3.6-41 6-65.6 7.2l287.8-287.8c.3 5.9.5 11.8.5 17.9Z" style="stroke-width:0;opacity:.8;fill:url(#Adsýz_degrade_29)"/></mask><style>.cls-5{stroke-width:0;fill:#09090b;}.cls-6{stroke-width:0;fill:#fafafa;}@media(prefers-color-scheme:dark){.cls-5{fill:#fafafa;}.cls-6{fill:#09090b;}}</style></defs><g style="isolation:isolate"><g id="katman_1" data-name="katman 1"><path d="M0 0h770v770H0z" class="cls-6"/><path d="M550.5 177.4c-32.1-27.1-70.5-47.3-115.1-60.6-24.8-7.4-51.5-12.6-80.1-15.8L130.4 325.9v368.3h165.9l345.8-345.8c-9.2-70.2-39.8-127.2-91.6-170.9ZM271.1 566.2V224.7h31.3c7.6 0 15.1.2 22.3.7 51.7 3.3 92.9 18.3 123.7 45 35.1 30.4 52.7 72.3 52.7 125.5s-17.6 94.9-52.7 125.1q-52.65 45.3-146.1 45.3H271ZM640.3 423.5c0 16.6-1.2 32.6-3.7 48-5 31.2-15.1 59.8-30.3 85.9-22.7 39-55.9 71-99.7 96.1-24.9 14.4-52 24.8-81.2 31.2-2.5.6-5.1 1.1-7.8 1.6-19.2 3.6-41 6-65.6 7.2l287.8-287.8c.3 5.9.5 11.8.5 17.9ZM336.8 73.7c-14.5-.9-29.4-1.3-44.7-1.3H108.2v229.9z" class="cls-5"/><g style="mask:url(#mask)"><path d="M435.4 116.8 324.7 225.4c-7.2-.5-14.7-.7-22.3-.7h-31.3V278L130.4 416v-90.1L355.3 101c28.6 3.1 55.3 8.4 80.1 15.8" style="stroke-width:0;mix-blend-mode:multiply;fill:url(#Adsýz_degrade_17)"/></g><g style="mask:url(#mask-1)"><g style="mix-blend-mode:multiply"><path d="M640.3 423.5c0 16.6-1.2 32.6-3.7 48L417.7 686.3c-19.2 3.6-41 6-65.6 7.2l287.8-287.8c.3 5.9.5 11.8.5 17.9Z" style="stroke-width:0;mix-blend-mode:multiply;fill:url(#Adsýz_degrade_21);opacity:.8"/><path d="M640.3 423.5c0 16.6-1.2 32.6-3.7 48L417.7 686.3c-19.2 3.6-41 6-65.6 7.2l287.8-287.8c.3 5.9.5 11.8.5 17.9Z" style="stroke-width:0;fill:url(#Adsýz_degrade_21);opacity:.8"/></g></g></g></g></svg>